PathFileType	4	(X/Y/Z)	C:\Users\WrightLab\Desktop\Jo\P2_Trial8.trc
DataRate	CameraRate	NumFrames	NumMarkers	Units	OrigDataRate	OrigDataStartFrame	OrigNumFrames
100.00	100.00	       24	19	mm	100.00	117	       932
Frame#	Time	Headset_Front			Headset_Back			Headset_Left			Headset_Right			Left_Shoulder			Right_Shoulder			Sternum			C7			Left Elbow			Right Elbow			Left Wrist			Right Wrist			Left ASIS			Right ASIS			S2			Left Knee			Right Knee			Left Ankle			Right Ankle			
		X1	Y1	Z1	X2	Y2	Z2	X3	Y3	Z3	X4	Y4	Z4	X5	Y5	Z5	X6	Y6	Z6	X7	Y7	Z7	X8	Y8	Z8	X9	Y9	Z9	X10	Y10	Z10	X11	Y11	Z11	X12	Y12	Z12	X13	Y13	Z13	X14	Y14	Z14	X15	Y15	Z15	X16	Y16	Z16	X17	Y17	Z17	X18	Y18	Z18	X19	Y19	Z19	

117	1.160							-107.37075	1638.15015	1669.53076				-105.12469	1471.51367	1703.62183	221.69180	1518.78894	1713.55200				63.68635	1502.24487	1822.06055	-232.50482	1145.49524	1638.43213	349.28473	1240.04480	1818.61804				330.92673	1213.99231	1603.14490							66.67606	1014.07776	1904.23352	-98.45910	495.52530	1768.33984	296.28979	604.75476	1767.39404	-100.17766	141.76735	1820.39832	286.29303	168.35019	1726.00220	
118	1.170							-105.28443	1638.70251	1669.48401				-104.05606	1472.01660	1702.53735	222.84193	1519.29504	1713.71851				64.77858	1502.53076	1821.06714	-230.89864	1144.26685	1639.01160	350.49359	1239.98425	1818.79407				332.45865	1214.24390	1601.33960							69.21091	1014.70349	1903.61255	-96.61766	495.60379	1768.24780	297.68985	604.88165	1765.65417	-99.07799	140.60188	1820.35730	286.69901	167.25877	1727.62891	
119	1.180							-103.50024	1638.63660	1668.40906				-101.82603	1471.49158	1700.50781	225.20508	1519.51636	1712.11023				66.92175	1501.63147	1818.59009	-230.21445	1145.27063	1635.51941	352.73297	1239.91187	1817.41052				334.44727	1214.37927	1600.39514	175.67139	1093.38416	1645.41638				71.59949	1014.31256	1901.61609	-95.16411	495.33511	1768.76990	299.21182	604.09662	1763.26440	-98.90159	139.29590	1819.22351	289.33667	165.32063	1731.43079	
120	1.190							-102.08022	1638.48560	1667.02441				-100.55018	1471.69324	1700.17847	226.45151	1519.78320	1711.67163				67.79926	1501.68542	1817.88501	-229.03561	1145.32788	1634.25452	354.30743	1240.19666	1815.57349				336.04663	1213.93164	1598.87952							73.83981	1013.36194	1899.12256	-93.67891	494.78159	1768.05920	301.18542	603.17322	1762.49670	-98.79370	138.82120	1818.31470	290.24200	166.59041	1735.20557	
121	1.200							-100.87660	1638.44373	1665.84290				-98.64146	1471.21692	1698.74939	228.03944	1519.27429	1709.97876				69.72140	1501.19214	1815.69409	-228.37186	1144.20361	1634.08325	355.68958	1239.88428	1815.28674				338.72635	1213.97339	1597.73938							75.10722	1013.54370	1897.96899	-92.32381	494.41516	1767.09998	302.18759	603.83521	1762.42554	-98.77180	138.82532	1818.33264	291.78171	166.24770	1738.98975	
122	1.210							-98.74714	1638.01929	1663.92383				-97.25027	1471.09607	1697.69348	229.13533	1519.19177	1708.34570				71.18372	1501.03186	1814.80994	-227.40500	1145.10852	1632.18713	357.26367	1239.70679	1812.01245				339.39041	1213.74622	1595.37012	180.53217	1093.95496	1641.37244				77.34181	1012.97357	1895.78699	-91.04807	493.91882	1767.99634	304.23514	603.92657	1761.09045	-98.32796	138.70456	1817.79419	293.38989	165.33688	1739.80750	
123	1.220							-97.73148	1638.34802	1663.92358				-95.75362	1471.06116	1695.82141	231.36234	1518.49805	1705.38135				72.58287	1501.33960	1814.10010	-226.05464	1143.58923	1632.35229	358.95419	1239.55566	1811.18469				341.58868	1213.58997	1594.19202	181.31555	1093.84412	1637.82910				79.24410	1013.29419	1894.54858	-89.93730	493.78220	1767.87012	305.43320	604.09570	1761.00940	-97.81268	138.80806	1817.46167	294.37845	166.62537	1743.53210	
124	1.230							-96.06282	1638.27478	1662.91125				-94.52313	1470.96667	1694.29956	232.14713	1518.45288	1704.73633				74.63295	1501.20154	1812.20459	-225.34993	1144.84753	1629.24915	360.06918	1239.04419	1810.78479				343.22873	1213.22168	1592.90222	182.93855	1092.61902	1638.12134				80.94700	1013.63879	1893.94421	-89.02020	493.88284	1768.10522	307.79337	603.61981	1761.94092	-97.16140	138.33577	1816.59338	295.51025	166.00604	1744.43994	
125	1.240							-94.63297	1638.20081	1661.96497				-92.67529	1470.57275	1691.96069	234.47717	1518.47693	1701.69739				76.15882	1501.35205	1811.22156	-223.90147	1144.87573	1628.51099	361.80194	1238.73792	1809.30688				344.57837	1212.30469	1591.67627	184.59972	1094.48254	1633.70227				82.58288	1014.11926	1892.46606	-88.25002	493.53415	1768.71472	309.39633	603.45386	1762.73010	-96.70287	137.78467	1815.87598	297.02615	166.53598	1746.18835	
126	1.250							-93.26015	1637.89294	1660.35095				-91.14081	1470.60950	1690.57324	235.58784	1518.58582	1700.82007				77.96658	1500.78943	1809.30579	-223.19191	1145.18298	1626.41614	363.46835	1238.40796	1807.87256				346.06479	1211.94360	1590.10693	185.92505	1094.12402	1633.57800				83.89777	1014.03485	1891.22058	-87.03175	493.89212	1767.20715	310.86902	603.00385	1764.67151	-96.63393	137.95760	1815.68518	297.25903	166.26280	1746.58191	
127	1.260							-91.91469	1637.42883	1658.90576				-89.65182	1470.81812	1690.21130	237.14558	1518.13074	1699.35266				79.37272	1500.32507	1807.72693	-222.46373	1145.40894	1624.55432	364.17624	1238.33179	1805.60852				347.95883	1211.28784	1588.10010	187.40996	1092.94031	1633.72974				85.15678	1013.76343	1889.40857	-86.13737	493.47513	1765.31128	312.39279	602.71686	1766.23999	-96.60480	137.98166	1815.69666	298.01620	165.81982	1747.54956	
128	1.270							-90.22115	1636.85303	1656.55798				-87.87171	1470.76990	1689.40479	238.70164	1517.98059	1697.61584				81.20579	1500.02893	1805.40649	-221.58777	1145.59094	1623.12476	365.92374	1238.26526	1804.28833				348.78418	1210.77148	1586.87598	189.56715	1091.00171	1633.27063				86.56747	1013.23529	1887.47046	-85.50461	493.57120	1764.79724	313.54648	602.28564	1766.40271	-96.59928	137.99190	1815.69495	297.87445	165.71526	1747.84497	
129	1.280							-89.67209	1637.22437	1656.62354				-86.22564	1470.69775	1688.41589	240.69843	1517.69031	1695.67566				82.92757	1500.34094	1804.08716	-219.96556	1145.24353	1623.41772	367.64377	1238.05054	1802.18982				350.15445	1210.10681	1585.16309	190.71011	1090.22375	1631.90601				87.55166	1012.89551	1886.18518	-85.79185	493.26547	1765.50171	315.06290	602.15015	1768.80774	-96.61964	137.99677	1815.67236	298.09506	165.68243	1747.70715	
130	1.290							-87.68227	1636.71619	1655.04272				-85.12473	1470.73059	1687.34937	242.77119	1517.34583	1694.08118				84.69586	1500.51135	1803.03540	-219.15236	1145.46497	1622.14832	368.79785	1237.47791	1801.85217				351.65057	1209.47217	1584.39600	191.82001	1090.45654	1630.04846				89.17540	1012.45392	1883.79504	-85.44540	493.32834	1765.26624	316.74509	601.67401	1769.97595	-96.65237	138.01302	1815.63025	298.58157	165.24332	1748.71545	
131	1.300							-86.12798	1637.19556	1654.69739				-83.23862	1470.53613	1684.79309	243.81848	1518.01746	1693.84729				86.53820	1500.66272	1802.03320	-218.34590	1145.73047	1620.64038	370.30597	1237.06970	1799.68079				352.54584	1208.68750	1582.55920	193.09055	1091.04883	1628.05994				90.25031	1012.75256	1882.34912	-85.09095	493.52628	1764.37927	317.74832	601.41968	1772.10437	-96.68949	138.02249	1815.58850	298.86578	164.66179	1749.20081	
132	1.310							-84.23997	1636.99646	1653.60095				-81.80157	1470.51526	1683.69360	246.19319	1517.52893	1691.32581	101.05944	1378.65442	1630.21472	88.24711	1500.36450	1801.08423	-217.39604	1146.07983	1618.86804	371.80386	1236.35596	1798.77649				353.51144	1207.63232	1581.55798	194.13338	1091.35742	1626.76306				91.51574	1012.46576	1880.48950	-84.41025	493.20538	1762.05920	319.72415	600.66791	1773.39893	-96.75085	138.06100	1815.50415	299.29999	164.43044	1750.19519	
133	1.320							-82.81248	1637.05798	1652.25085				-80.09634	1470.52148	1682.61450	247.36417	1517.52246	1690.06555	102.12049	1378.67078	1628.63184	90.17008	1500.13171	1798.99634	-215.71893	1147.79602	1616.55139	372.73367	1236.36963	1795.08545				354.78256	1207.36462	1579.51282	194.13985	1091.45105	1625.67456				92.88380	1012.14795	1879.06177	-83.63182	493.88541	1759.79236	321.17856	601.22186	1773.79712	-97.05103	138.38860	1815.08508	299.52573	164.65654	1751.05652	
134	1.330							-81.44766	1636.90930	1650.60876				-78.31538	1470.95264	1682.20190	249.04678	1516.50366	1687.69617	103.47717	1378.57544	1627.49609	91.78860	1500.38293	1797.21790	-214.67706	1147.98987	1615.54346	374.18112	1235.82312	1794.26099				355.88187	1206.80261	1578.08447	195.19093	1091.16919	1623.02441				94.40246	1011.92041	1877.25195	-82.78552	494.23779	1759.03418	322.59396	601.32501	1775.79382	-97.26614	138.73117	1814.61682	299.43701	164.42862	1751.47888	
135	1.340							-79.85995	1636.52234	1648.85767				-76.61227	1471.65417	1680.90601	250.23898	1516.16809	1685.96289	104.89441	1379.03967	1626.13318	93.41485	1500.22034	1795.52356	-213.88913	1148.18823	1614.85522	376.12051	1235.76550	1793.14893				357.00751	1206.04700	1576.33740	195.89334	1090.73108	1622.24011				95.70334	1011.76685	1875.78870	-81.33652	494.56668	1757.10645	323.63989	600.52698	1776.30762	-96.95534	138.73892	1813.90161	299.41669	164.48700	1751.53101	
136	1.350							-77.93646	1636.23071	1647.33630				-75.50916	1471.85059	1680.10156	251.74315	1515.84180	1684.03162	106.35716	1378.54712	1624.29297	94.57375	1500.26587	1794.77332	-212.81450	1148.37219	1613.77734	377.12622	1235.49915	1790.16699				357.27008	1205.45837	1574.19788	197.16405	1091.83179	1618.97986				96.69670	1012.19598	1874.62720	-80.69669	494.08801	1755.66418	325.54675	601.09644	1778.04236	-97.04931	138.82237	1813.75586	299.31326	164.12608	1752.08374	
137	1.360							-76.81610	1636.94092	1647.79077				-73.87053	1471.60681	1678.02429	252.83969	1515.96423	1683.02368	107.65592	1378.46460	1623.13904	96.59402	1499.92871	1793.25439	-211.82449	1148.61011	1612.65320	378.38324	1234.76611	1789.93982	-265.85904	986.10223	1505.05273	358.41019	1204.91797	1572.33398	198.89146	1091.43091	1617.02832				98.25822	1011.46753	1872.71301	-80.17466	494.13919	1753.94812	324.94330	599.98669	1778.52734	-97.27354	139.20033	1813.25513	299.32663	164.12364	1752.07153	
138	1.370							-74.89876	1637.03479	1646.61414				-73.03335	1471.62622	1677.13354	254.95375	1515.54773	1680.72803	108.92928	1378.67261	1621.99341	98.16230	1499.85168	1792.46619	-210.81110	1148.93127	1611.44092	380.17429	1234.20508	1788.03992	-264.33292	985.01794	1502.25256	359.61548	1204.71704	1570.82886	199.01781	1090.92859	1616.35693				99.07063	1011.27850	1871.62842	-78.96667	493.59393	1751.94702	325.29285	599.59448	1778.84070	-97.10139	139.79465	1812.17786	299.29480	164.04997	1752.05176	
139	1.380							-73.55488	1637.31726	1645.64685				-71.04398	1471.38965	1674.11340	255.69337	1515.78345	1680.58752	110.18279	1378.86426	1620.43188	99.50354	1500.04456	1791.45911	-209.84819	1149.29224	1610.17493	381.46524	1234.04272	1786.13904	-263.84631	985.07605	1501.71814	361.01291	1204.45178	1569.05652	199.95827	1090.70361	1614.73254				100.11484	1011.11841	1869.90698	-77.31226	494.74042	1749.83545	325.25577	599.57843	1778.80994	-97.16701	140.08249	1811.78174	299.23267	163.98880	1752.06372	
140	1.390							-71.47722	1636.99438	1642.81165				-70.31882	1471.91187	1673.93054	257.82404	1515.48120	1678.39783	111.47059	1378.63367	1619.20471	101.11816	1500.16968	1789.78027	-208.95721	1149.47131	1609.16614	382.11731	1233.56934	1783.93604	-263.50854	985.44611	1500.99683	361.40811	1204.27917	1568.09204	201.09132	1090.49231	1613.09692				101.04478	1011.22687	1868.37585	-76.51364	494.64090	1749.09106	324.48486	599.43793	1777.83875	-98.45741	141.17946	1811.60327	299.22714	163.86276	1751.99060	
